<svg id="logo" xmlns="http://www.w3.org/2000/svg" viewBox="0 0 366.6 141"><defs><style>.cls-1{fill:#152a69;}.cls-2{fill:#00c6c5;}</style></defs><title>logo</title><g id="_Grupo_" data-name="&lt;Grupo&gt;"><g id="_Grupo_2" data-name="&lt;Grupo&gt;"><g id="_Grupo_3" data-name="&lt;Grupo&gt;"><g id="_Grupo_4" data-name="&lt;Grupo&gt;"><polygon id="_Trazado_" data-name="&lt;Trazado&gt;" class="cls-1" points="155.1 25.1 155.1 11.5 111.6 11.5 111.6 11.5 111.6 11.5 111.6 23.5 139.1 23.5 111.6 54.7 111.6 68.9 155.7 68.9 155.7 57.5 155.7 56.9 127.6 56.9 155.1 25.1"/><rect id="_Trazado_2" data-name="&lt;Trazado&gt;" class="cls-1" x="163.8" y="22.8" width="14.2" height="46.13"/><polygon id="_Trazado_3" data-name="&lt;Trazado&gt;" class="cls-1" points="269.9 43.6 288.3 22.8 270.8 22.8 255 41 255 11.5 240.8 11.5 240.8 68.9 255 68.9 255 45.6 255.2 45.6 270.8 68.9 288.7 68.9 269.9 43.6"/><path id="_Trazado_4" data-name="&lt;Trazado&gt;" class="cls-1" d="M228.6,27.9a12.6,12.6,0,0,0-5.2-4.6,19.6,19.6,0,0,0-8.7-1.7,16.3,16.3,0,0,0-4.7.7A16.9,16.9,0,0,0,206,24a13.8,13.8,0,0,0-2.9,2.4,11.5,11.5,0,0,0-1.9,2.7H201V22.8H187.3V68.9h14.2v-23a32.3,32.3,0,0,1,.3-4.4,10.9,10.9,0,0,1,1.2-3.7,6.8,6.8,0,0,1,2.6-2.7,8.8,8.8,0,0,1,4.5-1,6.1,6.1,0,0,1,6.4,4.1,13,13,0,0,1,.9,3.9q.1,2.1.1,4.1V68.9h14.2V43.5a52.7,52.7,0,0,0-.7-8.6A18.6,18.6,0,0,0,228.6,27.9Z"/><path id="_Trazado_5" data-name="&lt;Trazado&gt;" class="cls-1" d="M170.9,0a8,8,0,0,0-5.8,2.4,8,8,0,0,0-2.4,5.8,8,8,0,0,0,2.4,5.8,8.2,8.2,0,0,0,11.7,0,8,8,0,0,0,2.4-5.8,8,8,0,0,0-2.4-5.8A8,8,0,0,0,170.9,0Z"/></g><path id="_Trazado_compuesto_" data-name="&lt;Trazado compuesto&gt;" class="cls-2" d="M88.1,8.3a8,8,0,0,1,2.4-5.8,8.2,8.2,0,0,1,11.7,0,8,8,0,0,1,2.4,5.8,8,8,0,0,1-2.4,5.8,8.2,8.2,0,0,1-11.7,0A8,8,0,0,1,88.1,8.3Zm1.1,14.5h14.2V68.9H89.3ZM41.7,35.7h.1L53.6,68.9H66.3l17-57.4H68.9L59.4,44.8h-.2L47.5,11.5H35.8L24.2,44.8H24L14.4,11.5H0L17,68.9H29.8L41.6,35.7Z"/></g></g></g><path id="_Trazado_compuesto_2" data-name="&lt;Trazado compuesto&gt;" class="cls-2" d="M366.6,93.4v-1a14.7,14.7,0,0,0-7.1,1.8,1.3,1.3,0,0,1,.1.4h0a1.3,1.3,0,0,1-1.3,1.3h0a1.3,1.3,0,0,1-.8-.3l-1.6,1.6h.2a1.3,1.3,0,1,1-1.2,1.4,13.1,13.1,0,0,0-1,1.8v-4h0V93.5H351a1.3,1.3,0,0,1,.5,1h0a1.3,1.3,0,0,1-1.3,1.3h0a1.3,1.3,0,0,1-1.3-1.3h0a1.3,1.3,0,0,1,.5-1h-2.9a1.3,1.3,0,0,1,.5,1h0a1.3,1.3,0,0,1-1.3,1.3h0a1.3,1.3,0,0,1-1.3-1.3h0a1.3,1.3,0,0,1,.5-1h-3.2v3.9a1.3,1.3,0,1,1,0,1.7V105a1.3,1.3,0,1,1,0,1.7v5.8a1.3,1.3,0,1,1,0,1.7v5.8a1.3,1.3,0,1,1,0,1.7v5.8a1.3,1.3,0,1,1,0,1.7v5.8a1.3,1.3,0,1,1,0,1.7v2.8h1.9a1.3,1.3,0,0,1,1.2-1.1h0a1.3,1.3,0,0,1,1.2,1.1h1.9a1.3,1.3,0,0,1,1.2-1.1h0a1.3,1.3,0,0,1,1.2,1.1h1.9a1.3,1.3,0,0,1,1.2-1.1h.3v-5.1h-.3a1.3,1.3,0,0,1-1.3-1.3h0a1.3,1.3,0,0,1,1.3-1.3h.3V126h-.3a1.3,1.3,0,0,1-1.3-1.3h0a1.3,1.3,0,0,1,1.3-1.3h.3v-3.9c0-.4,0-.8,0-1.2h-.3a1.3,1.3,0,0,1-1.3-1.3h0a1.3,1.3,0,0,1,1.3-1.3h.5a20.6,20.6,0,0,1,.5-2.8V113a10.6,10.6,0,0,1,4.5-6.5h0a1.3,1.3,0,1,1,2.3-1l2.4-.5a1.3,1.3,0,0,1,.8-.3l.6.2h1.1v-1.5a1.3,1.3,0,0,1-.7-1.1h0a1.3,1.3,0,0,1,.7-1.1V95.7a1.3,1.3,0,0,1-.7-1.1h0A1.3,1.3,0,0,1,366.6,93.4Zm-5.2,1.1a1.3,1.3,0,0,1,1.3-1.3h0a1.3,1.3,0,0,1,1.3,1.3h0a1.3,1.3,0,0,1-1.3,1.3h0a1.3,1.3,0,0,1-1.3-1.3Zm-7.6,6.3h0a1.3,1.3,0,0,1,1.3,1.3h0a1.3,1.3,0,0,1-1.3,1.3h0a1.3,1.3,0,0,1-1.3-1.3h0A1.3,1.3,0,0,1,353.8,100.8Zm-6.6,11.4a1.3,1.3,0,1,1-1.3,1.3A1.3,1.3,0,0,1,347.2,112.2Zm-1.3-6.3a1.3,1.3,0,1,1,1.3,1.3A1.3,1.3,0,0,1,345.9,105.9Zm1.3,13.9a1.3,1.3,0,1,1-1.3,1.3A1.3,1.3,0,0,1,347.2,119.8Zm0,7.6a1.3,1.3,0,1,1-1.3,1.3A1.3,1.3,0,0,1,347.2,127.3Zm.9-2.5h0a1.3,1.3,0,0,1,1.3-1.3h0a1.3,1.3,0,0,1,1.3,1.3h0a1.3,1.3,0,0,1-1.3,1.3h0A1.3,1.3,0,0,1,348.1,124.8Zm1.3-6.3h0a1.3,1.3,0,0,1-1.3-1.3h0a1.3,1.3,0,0,1,1.3-1.3h0a1.3,1.3,0,0,1,1.3,1.3h0A1.3,1.3,0,0,1,349.4,118.5Zm0-7.6h0a1.3,1.3,0,0,1-1.3-1.3h0a1.3,1.3,0,0,1,1.3-1.3h0a1.3,1.3,0,0,1,1.3,1.3h0A1.3,1.3,0,0,1,349.4,110.9Zm.9-5a1.3,1.3,0,1,1,1.3,1.3A1.3,1.3,0,0,1,350.4,105.9Zm1.3-8.8a1.3,1.3,0,1,1-1.3,1.3A1.3,1.3,0,0,1,351.6,97Zm-2.2,3.8h0a1.3,1.3,0,0,1,1.3,1.3h0a1.3,1.3,0,0,1-1.3,1.3h0a1.3,1.3,0,0,1-1.3-1.3h0A1.3,1.3,0,0,1,349.4,100.8ZM347.2,97a1.3,1.3,0,1,1-1.3,1.3A1.3,1.3,0,0,1,347.2,97Zm-3.5,5h0a1.3,1.3,0,0,1,1.3-1.3h0a1.3,1.3,0,0,1,1.3,1.3h0a1.3,1.3,0,0,1-1.3,1.3h0A1.3,1.3,0,0,1,343.7,102.1Zm0,7.6h0a1.3,1.3,0,0,1,1.3-1.3h0a1.3,1.3,0,0,1,1.3,1.3h0a1.3,1.3,0,0,1-1.3,1.3h0A1.3,1.3,0,0,1,343.7,109.7Zm0,7.6h0A1.3,1.3,0,0,1,345,116h0a1.3,1.3,0,0,1,1.3,1.3h0a1.3,1.3,0,0,1-1.3,1.3h0A1.3,1.3,0,0,1,343.7,117.2Zm0,7.6h0a1.3,1.3,0,0,1,1.3-1.3h0a1.3,1.3,0,0,1,1.3,1.3h0a1.3,1.3,0,0,1-1.3,1.3h0A1.3,1.3,0,0,1,343.7,124.8Zm1.3,8.8h0a1.3,1.3,0,0,1-1.3-1.3h0a1.3,1.3,0,0,1,1.3-1.3h0a1.3,1.3,0,0,1,1.3,1.3h0A1.3,1.3,0,0,1,345,133.6Zm2.2,3.8a1.3,1.3,0,1,1,1.3-1.3A1.3,1.3,0,0,1,347.2,137.4Zm2.2-3.8h0a1.3,1.3,0,0,1-1.3-1.3h0a1.3,1.3,0,0,1,1.3-1.3h0a1.3,1.3,0,0,1,1.3,1.3h0A1.3,1.3,0,0,1,349.4,133.6Zm3.5,2.5a1.3,1.3,0,1,1-1.3-1.3A1.3,1.3,0,0,1,352.9,136.2Zm0-7.6a1.3,1.3,0,1,1-1.3-1.3A1.3,1.3,0,0,1,352.9,128.6Zm0-7.6a1.3,1.3,0,1,1-1.3-1.3A1.3,1.3,0,0,1,352.9,121Zm-1.3-6.3a1.3,1.3,0,1,1,1.3-1.3A1.3,1.3,0,0,1,351.6,114.7Zm3.5-5a1.3,1.3,0,0,1-1.3,1.3h0a1.3,1.3,0,0,1-1.3-1.3h0a1.3,1.3,0,0,1,1.3-1.3h0a1.3,1.3,0,0,1,1.3,1.3Zm.9-2.5a1.3,1.3,0,1,1,1.3-1.3A1.3,1.3,0,0,1,356,107.1Zm3.5-5a1.3,1.3,0,0,1-1.3,1.3h0a1.3,1.3,0,0,1-1.3-1.3h0a1.3,1.3,0,0,1,1.3-1.3h0a1.3,1.3,0,0,1,1.3,1.3Zm.9-2.5a1.3,1.3,0,1,1,1.3-1.3A1.3,1.3,0,0,1,360.5,99.6Zm3.5,2.5a1.3,1.3,0,0,1-1.3,1.3h0a1.3,1.3,0,0,1-1.3-1.3h0a1.3,1.3,0,0,1,1.3-1.3h0a1.3,1.3,0,0,1,1.3,1.3Zm2.2-3.8a1.3,1.3,0,1,1-1.3-1.3A1.3,1.3,0,0,1,366.1,98.3Z"/><path id="_Trazado_compuesto_3" data-name="&lt;Trazado compuesto&gt;" class="cls-2" d="M155,133.6h0a1.3,1.3,0,0,1-1.3-1.3h0a1.3,1.3,0,0,1,1.3-1.3h0a1.3,1.3,0,0,1,.8.3l-2.2-6.8-.5.3a27,27,0,0,1-4.5,2.5,1.3,1.3,0,1,1-1.3.5h0l-2.1.7h0a1.3,1.3,0,0,1-2.4.5h0l-2.3.3h0a1.2,1.2,0,0,1-1.9,0l-2.4-.2h0a1.3,1.3,0,0,1-2.3-.5h0l-2.1-.8h0a1.3,1.3,0,1,1-1.1-.6l-2-1.3h-.2a1.3,1.3,0,0,1-1.3-1.2,17.9,17.9,0,0,1-5.2-10.1h-.2a1.3,1.3,0,0,1-.1-2.5c0-.4,0-.7,0-1.1a21.7,21.7,0,0,1,.4-4h-.3a1.3,1.3,0,1,1,.8-2.2l.7-1.8a1.3,1.3,0,0,1-.5-1h0a1.3,1.3,0,0,1,1.3-1.3h.4l1.1-1.6a1.3,1.3,0,1,1,1.7-1.9,16.3,16.3,0,0,1,4.5-3h0a1.3,1.3,0,0,1,1.3-1.2h0a1.3,1.3,0,0,1,.9.3,18.1,18.1,0,0,1,5.4-.8,21.3,21.3,0,0,1,6,.9h0a1.3,1.3,0,0,1,1-.5h0a1.3,1.3,0,0,1,1.3,1.2,26.7,26.7,0,0,1,5,2.6h.8l.7-2a1.3,1.3,0,0,1-.1-.6h0a1.3,1.3,0,0,1,.7-1.1l2.2-6.7-.2-.2-.2-.2a1.2,1.2,0,0,1,.1.6h0a1.3,1.3,0,0,1-1.3,1.3h0a1.3,1.3,0,0,1-1.3-1.3h0a1.3,1.3,0,0,1,1.3-1.3h.1l-2.3-1.3h-.1a1.3,1.3,0,0,1-1-.5l-2.2-.9h0a1.3,1.3,0,1,1-2.2-.8,31.5,31.5,0,0,0-8.3-1.1,32.7,32.7,0,0,0-7.7.9,1.3,1.3,0,1,1-2,.5l-2,.7a1.3,1.3,0,0,1-1.2,1l-.7-.2a29.2,29.2,0,0,0-4.7,2.8,1.3,1.3,0,0,1-1.3,1.2h-.2l-1.5,1.4a1.3,1.3,0,1,1-1.6,1.7l-1.8,2.3a1.2,1.2,0,0,1,.8-.3h0a1.3,1.3,0,0,1,1.3,1.3h0a1.3,1.3,0,0,1-1.3,1.3h0a1.3,1.3,0,0,1-1.3-1.3h0a1.3,1.3,0,0,1,.1-.4,28.7,28.7,0,0,0-2,3.4,1.3,1.3,0,1,1-.3.8v-.2a29.5,29.5,0,0,0-1.1,2.8h.1a1.3,1.3,0,0,1,1.3,1.3h0a1.3,1.3,0,0,1-1.3,1.3h0a1.3,1.3,0,0,1-.8-.3c-.2.7-.3,1.3-.5,2a1.2,1.2,0,0,1-.3,1.9,32.4,32.4,0,0,0-.3,4.2c0,.4,0,.7,0,1.1a1.3,1.3,0,0,1,.2,2.3c.1,1,.3,1.9.4,2.9v-.2h0a1.3,1.3,0,0,1,1.3-1.3h0a1.3,1.3,0,0,1,1.3,1.3h0a1.3,1.3,0,0,1-1.3,1.3h0a1.3,1.3,0,0,1-1.2-1,30.7,30.7,0,0,0,1.9,6.2,1.3,1.3,0,0,1,.6,1.1h0v.2l1.3,2.4a1.3,1.3,0,0,1,.9,1.2v.2a26.3,26.3,0,0,0,6.6,6.6,1.3,1.3,0,0,1,2.1,1.4,29.3,29.3,0,0,0,4.7,2.2,1.3,1.3,0,0,1,.8-.3h0a1.3,1.3,0,0,1,1.2,1l1.9.5V140h0a1.3,1.3,0,0,1,1.3-1.3h0a1.3,1.3,0,0,1,1.3,1.3h0a1.2,1.2,0,0,1-.2.7l2.5.3a1.3,1.3,0,0,1-.4-.9h0a1.3,1.3,0,0,1,1.3-1.3h0a1.3,1.3,0,0,1,1.3,1.3h0a1.3,1.3,0,0,1-.5,1H141a1.3,1.3,0,0,1-.5-1h0a1.3,1.3,0,0,1,1.3-1.3h0A1.3,1.3,0,0,1,143,140h0a1.3,1.3,0,0,1-.3.9l2.4-.3a1.2,1.2,0,0,1-.1-.5h0a1.3,1.3,0,0,1,1.3-1.3h0a1.3,1.3,0,0,1,1.3,1.3h0l2.1-.6a1.3,1.3,0,0,1,1.1-.7h.4a27.1,27.1,0,0,0,4.9-2.6h0a1.3,1.3,0,0,1,1-1.2l-.7-2.2A1.3,1.3,0,0,1,155,133.6Zm-2.2-6.3a1.3,1.3,0,1,1-1.3,1.3A1.3,1.3,0,0,1,152.8,127.3Zm-26.5,0a1.3,1.3,0,1,1-1.3,1.3A1.3,1.3,0,0,1,126.3,127.3Zm-2.2-3.8h0a1.3,1.3,0,0,1,1.3,1.3h0a1.3,1.3,0,0,1-1.3,1.3h0a1.3,1.3,0,0,1-1.3-1.3h0A1.3,1.3,0,0,1,124.1,123.5Zm-2.2-3.8a1.3,1.3,0,1,1-1.3,1.3A1.3,1.3,0,0,1,121.9,119.8Zm-4.4-12.6a1.3,1.3,0,1,1,1.3-1.3A1.3,1.3,0,0,1,117.5,107.1Zm1.3,6.3a1.3,1.3,0,1,1-1.3-1.3A1.3,1.3,0,0,1,118.7,113.4Zm-2.2-3.8h0a1.3,1.3,0,0,1-1.3,1.3h0a1.3,1.3,0,0,1-1.3-1.3h0a1.3,1.3,0,0,1,1.3-1.3h0A1.3,1.3,0,0,1,116.5,109.7Zm-1.3,6.3h0a1.3,1.3,0,0,1,1.3,1.3h0a1.3,1.3,0,0,1-1.3,1.3h0a1.3,1.3,0,0,1-1.3-1.3h0A1.3,1.3,0,0,1,115.3,116Zm2.2,3.8a1.3,1.3,0,1,1-1.3,1.3A1.3,1.3,0,0,1,117.5,119.8Zm.9,5a1.3,1.3,0,0,1,1.3-1.3h0a1.3,1.3,0,0,1,1.3,1.3h0a1.3,1.3,0,0,1-1.3,1.3h0a1.3,1.3,0,0,1-1.3-1.3Zm2.5-7.6h0a1.3,1.3,0,0,1-1.3,1.3h0a1.3,1.3,0,0,1-1.3-1.3h0a1.3,1.3,0,0,1,1.3-1.3h0A1.3,1.3,0,0,1,121,117.2Zm0-7.6h0a1.3,1.3,0,0,1-1.3,1.3h0a1.3,1.3,0,0,1-1.3-1.3h0a1.3,1.3,0,0,1,1.3-1.3h0A1.3,1.3,0,0,1,121,109.7Zm0-7.6a1.3,1.3,0,0,1-1.3,1.3h0a1.3,1.3,0,0,1-1.3-1.3h0a1.3,1.3,0,0,1,1.3-1.3h0a1.3,1.3,0,0,1,1.3,1.3Zm.9-2.5a1.3,1.3,0,1,1,1.3-1.3A1.3,1.3,0,0,1,121.9,99.6Zm3.5-5a1.3,1.3,0,0,1-1.3,1.3h0a1.3,1.3,0,0,1-1.3-1.3h0a1.3,1.3,0,0,1,1.3-1.3h0a1.3,1.3,0,0,1,1.3,1.3Zm4.4,0a1.3,1.3,0,0,1-1.3,1.3h0a1.3,1.3,0,0,1-1.3-1.3h0a1.3,1.3,0,0,1,1.3-1.3h0a1.3,1.3,0,0,1,1.3,1.3Zm5.4-2.5a1.3,1.3,0,1,1,1.3-1.3A1.3,1.3,0,0,1,135.2,92Zm4.4,0a1.3,1.3,0,1,1,1.3-1.3A1.3,1.3,0,0,1,139.6,92Zm4.4,0a1.3,1.3,0,1,1,1.3-1.3A1.3,1.3,0,0,1,144,92Zm7.9,2.5a1.3,1.3,0,0,1-1.3,1.3h0a1.3,1.3,0,0,1-1.3-1.3h0a1.3,1.3,0,0,1,1.3-1.3h0a1.3,1.3,0,0,1,1.3,1.3Zm.9-5a1.3,1.3,0,1,1-1.3,1.3A1.3,1.3,0,0,1,152.8,89.5Zm-3.5-2.5a1.3,1.3,0,0,1,1.3-1.3h0a1.3,1.3,0,0,1,1.3,1.3h0a1.3,1.3,0,0,1-1.3,1.3h0a1.3,1.3,0,0,1-1.3-1.3Zm-.9,2.5a1.3,1.3,0,1,1-1.3,1.3A1.3,1.3,0,0,1,148.4,89.5Zm-2.2-3.8h0a1.3,1.3,0,0,1,1.3,1.3h0a1.3,1.3,0,0,1-1.3,1.3h0a1.3,1.3,0,0,1-1.3-1.3h0A1.3,1.3,0,0,1,146.2,85.7ZM144,81.9a1.3,1.3,0,1,1-1.3,1.3A1.3,1.3,0,0,1,144,81.9Zm-2.2,3.8h0a1.3,1.3,0,0,1,1.3,1.3h0a1.3,1.3,0,0,1-1.3,1.3h0a1.3,1.3,0,0,1-1.3-1.3h0A1.3,1.3,0,0,1,141.8,85.7Zm-2.2-3.8a1.3,1.3,0,1,1-1.3,1.3A1.3,1.3,0,0,1,139.6,81.9Zm-2.2,3.8h0a1.3,1.3,0,0,1,1.3,1.3h0a1.3,1.3,0,0,1-1.3,1.3h0a1.3,1.3,0,0,1-1.3-1.3h0A1.3,1.3,0,0,1,137.4,85.7Zm-2.2-3.8a1.3,1.3,0,1,1-1.3,1.3A1.3,1.3,0,0,1,135.2,81.9Zm-3.5,5a1.3,1.3,0,0,1,1.3-1.3h0a1.3,1.3,0,0,1,1.3,1.3h0a1.3,1.3,0,0,1-1.3,1.3h0a1.3,1.3,0,0,1-1.3-1.3Zm-.9,2.5a1.3,1.3,0,1,1-1.3,1.3A1.3,1.3,0,0,1,130.7,89.5Zm-3.5-2.5a1.3,1.3,0,0,1,1.3-1.3h0a1.3,1.3,0,0,1,1.3,1.3h0a1.3,1.3,0,0,1-1.3,1.3h0a1.3,1.3,0,0,1-1.3-1.3Zm-.9,2.5a1.3,1.3,0,1,1-1.3,1.3A1.3,1.3,0,0,1,126.3,89.5Zm-3.5-2.5a1.3,1.3,0,0,1,1.3-1.3h0a1.3,1.3,0,0,1,1.3,1.3h0a1.3,1.3,0,0,1-1.3,1.3h0a1.3,1.3,0,0,1-1.3-1.3Zm-.9,2.5a1.3,1.3,0,1,1-1.3,1.3A1.3,1.3,0,0,1,121.9,89.5Zm-3.5,5a1.3,1.3,0,0,1,1.3-1.3h0a1.3,1.3,0,0,1,1.3,1.3h0a1.3,1.3,0,0,1-1.3,1.3h0a1.3,1.3,0,0,1-1.3-1.3Zm-.9,2.5a1.3,1.3,0,1,1-1.3,1.3A1.3,1.3,0,0,1,117.5,97Zm-3.5,5a1.3,1.3,0,0,1,1.3-1.3h0a1.3,1.3,0,0,1,1.3,1.3h0a1.3,1.3,0,0,1-1.3,1.3h0a1.3,1.3,0,0,1-1.3-1.3Zm-.9,2.5a1.3,1.3,0,1,1-1.3,1.3A1.3,1.3,0,0,1,113.1,104.6Zm-2.2,6.3h0a1.3,1.3,0,0,1-1.3-1.3h0a1.3,1.3,0,0,1,1.3-1.3h0a1.3,1.3,0,0,1,1.3,1.3h0A1.3,1.3,0,0,1,110.9,110.9Zm.9,2.5a1.3,1.3,0,1,1,1.3,1.3A1.3,1.3,0,0,1,111.8,113.4Zm1.3,8.8a1.3,1.3,0,1,1,1.3-1.3A1.3,1.3,0,0,1,113.1,122.3Zm2.2,3.8h0a1.3,1.3,0,0,1-1.3-1.3h0a1.3,1.3,0,0,1,1.3-1.3h0a1.3,1.3,0,0,1,1.3,1.3h0A1.3,1.3,0,0,1,115.3,126.1Zm2.2,3.8a1.3,1.3,0,1,1,1.3-1.3A1.3,1.3,0,0,1,117.5,129.9Zm3.5,2.5a1.3,1.3,0,0,1-1.3,1.3h0a1.3,1.3,0,0,1-1.3-1.3h0a1.3,1.3,0,0,1,1.3-1.3h0a1.3,1.3,0,0,1,1.3,1.3Zm.9-2.5a1.3,1.3,0,1,1,1.3-1.3A1.3,1.3,0,0,1,121.9,129.9Zm2.2,3.8h0a1.3,1.3,0,0,1-1.3-1.3h0a1.3,1.3,0,0,1,1.3-1.3h0a1.3,1.3,0,0,1,1.3,1.3h0A1.3,1.3,0,0,1,124.1,133.6Zm2.2,3.8a1.3,1.3,0,1,1,1.3-1.3A1.3,1.3,0,0,1,126.3,137.4Zm2.2-3.8h0a1.3,1.3,0,0,1-1.3-1.3h0a1.3,1.3,0,0,1,1.3-1.3h0a1.3,1.3,0,0,1,1.3,1.3h0A1.3,1.3,0,0,1,128.5,133.6Zm2.2,3.8a1.3,1.3,0,1,1,1.3-1.3A1.3,1.3,0,0,1,130.7,137.4Zm2.2-3.8h0a1.3,1.3,0,0,1-1.3-1.3h0a1.3,1.3,0,0,1,1.3-1.3h0a1.3,1.3,0,0,1,1.3,1.3h0A1.3,1.3,0,0,1,132.9,133.6Zm2.2,3.8a1.3,1.3,0,1,1,1.3-1.3A1.3,1.3,0,0,1,135.2,137.4Zm2.2-3.8h0a1.3,1.3,0,0,1-1.3-1.3h0a1.3,1.3,0,0,1,1.3-1.3h0a1.3,1.3,0,0,1,1.3,1.3h0A1.3,1.3,0,0,1,137.4,133.6Zm2.2,3.8a1.3,1.3,0,1,1,1.3-1.3A1.3,1.3,0,0,1,139.6,137.4Zm2.2-3.8h0a1.3,1.3,0,0,1-1.3-1.3h0a1.3,1.3,0,0,1,1.3-1.3h0a1.3,1.3,0,0,1,1.3,1.3h0A1.3,1.3,0,0,1,141.8,133.6Zm2.2,3.8a1.3,1.3,0,1,1,1.3-1.3A1.3,1.3,0,0,1,144,137.4Zm2.2-3.8h0a1.3,1.3,0,0,1-1.3-1.3h0a1.3,1.3,0,0,1,1.3-1.3h0a1.3,1.3,0,0,1,1.3,1.3h0A1.3,1.3,0,0,1,146.2,133.6Zm2.2,3.8a1.3,1.3,0,1,1,1.3-1.3A1.3,1.3,0,0,1,148.4,137.4Zm2.2-3.8h0a1.3,1.3,0,0,1-1.3-1.3h0a1.3,1.3,0,0,1,1.3-1.3h0a1.3,1.3,0,0,1,1.3,1.3h0A1.3,1.3,0,0,1,150.6,133.6Zm2.2,3.8a1.3,1.3,0,1,1,1.3-1.3A1.3,1.3,0,0,1,152.8,137.4Z"/><path id="_Trazado_6" data-name="&lt;Trazado&gt;" class="cls-2" d="M109.6,105h0Z"/><path id="_Trazado_7" data-name="&lt;Trazado&gt;" class="cls-2" d="M109.6,117.5h0Z"/><path id="_Trazado_8" data-name="&lt;Trazado&gt;" class="cls-2" d="M112.1,125h0Z"/><path id="_Trazado_9" data-name="&lt;Trazado&gt;" class="cls-2" d="M162.5,116.2h0l2.3,2.3,2.6-7.8.2-.2a.5.5,0,0,1,.6,0l3.6,3.6,1.8-.6-5.1-5.1a.5.5,0,0,1,.2-.8l2.8-.9h0l6.4-2.1a9.5,9.5,0,0,1,4.8-2.1l.4-1.2-7.5,2.5h-.5a.5.5,0,0,1-.2-.5l1.8-5.4-1.1-1.1-2.6,7.8a.5.5,0,0,1-.4.3h-.5l-4.8-4.8-1.1,1.3a.5.5,0,0,1-.2.8l-.5.2-1.1,1.9h.4l2.8-.9a.5.5,0,0,1,.6.6l-.9,2.8h0l-2.8,8.5a.5.5,0,0,1-.4.3h-.5l-1.9-1.9a.5.5,0,0,1-.1-.5l1.6-4.7-.6.2a27.8,27.8,0,0,0-1.3,7.1h.1Z"/><path id="_Trazado_10" data-name="&lt;Trazado&gt;" class="cls-2" d="M174.9,95.6l.3-.3h.5l1.9,1.9a.5.5,0,0,1,.1.5l-1.6,4.7,7.6-2.5a.5.5,0,0,1,.6.6l-.6,1.7h1.5l1.6-4.9-7.6,2.5a.5.5,0,0,1-.6-.2h-.1a.5.5,0,0,1,0-.3l.9-2.8.3-.3,2.8-.9h0l2-.7-2.2-2.2-2.2.2.9.9a.5.5,0,0,1-.2.8l-2.8.9a.5.5,0,0,1-.5-.1l-1.5-1.5-2.6,1.1-1.6,4.9a.5.5,0,0,1-.4.3h-.5l-2-2L168,99.1l4.3,4.3Z"/><path id="_Trazado_11" data-name="&lt;Trazado&gt;" class="cls-2" d="M182.6,92.4h0Z"/><path id="_Trazado_12" data-name="&lt;Trazado&gt;" class="cls-2" d="M172.4,95.5,170,97.3l1.4,1.4Z"/><path id="_Trazado_13" data-name="&lt;Trazado&gt;" class="cls-2" d="M161.4,115.2h0Z"/><path id="_Trazado_14" data-name="&lt;Trazado&gt;" class="cls-2" d="M165.6,102.1h0v0Z"/><path id="_Trazado_15" data-name="&lt;Trazado&gt;" class="cls-2" d="M164.4,106.8a.5.5,0,0,1,.1.5l-1.8,5.4,1.1,1.1,2.6-7.7h0l.6-1.9-1.9.6h0l-1.3.4-.7,1.7.7-.3A.5.5,0,0,1,164.4,106.8Z"/><polygon id="_Trazado_16" data-name="&lt;Trazado&gt;" class="cls-2" points="110.7 100.8 110.7 100.8 110.7 100.8 110.7 100.8"/><path id="_Trazado_17" data-name="&lt;Trazado&gt;" class="cls-2" d="M149.6,83h0Z"/><polygon id="_Trazado_18" data-name="&lt;Trazado&gt;" class="cls-2" points="152.9 84.4 152.9 84.4 152.9 84.4 152.9 84.4"/><path id="_Trazado_19" data-name="&lt;Trazado&gt;" class="cls-2" d="M180.1,93.7l-.8-.8-1.9.5,1,1Z"/><path id="_Trazado_20" data-name="&lt;Trazado&gt;" class="cls-2" d="M196.3,114.5l-7.6,2.5h-.2l-.4-.2a.5.5,0,0,1-.1-.4l1.6-4.7h-1.5l-2,5.9a.5.5,0,0,1-.4.3h-.5l-6.1-6.1h-2.4l2.6,2.6a.5.5,0,0,1-.2.8l-2.8.9h0l-2.6.9-.6,1.7,4.7-1.6h0l2.8-.9a.5.5,0,0,1,.6.6l-.9,2.8h4.7l7.9-2.6a.5.5,0,0,1,.6.6l-.7,2h1.7a.5.5,0,0,1-.1-.4Z"/><path id="_Trazado_21" data-name="&lt;Trazado&gt;" class="cls-2" d="M195.5,126.6l3.3,3.3,1.1-3.2-1.2-.9v.4a.5.5,0,0,1-.4.3h-.5l-1-1h0Z"/><path id="_Trazado_22" data-name="&lt;Trazado&gt;" class="cls-2" d="M187.2,111.8h-1.5l-.4,1.2a.5.5,0,0,1-.4.3h-.5l-1.4-1.4h-2.4l4.9,4.9Z"/><path id="_Trazado_23" data-name="&lt;Trazado&gt;" class="cls-2" d="M178.7,132.8a.5.5,0,0,1-.4.3h-.5l-3.6-3.6-1.8.6,6.4,6.4,2.3-6.9-1.3-.6Z"/><path id="_Trazado_24" data-name="&lt;Trazado&gt;" class="cls-2" d="M195.3,94.9h0Z"/><path id="_Trazado_25" data-name="&lt;Trazado&gt;" class="cls-2" d="M193.1,93.9a23.4,23.4,0,0,0-5.1-1.3l4.2,4.2Z"/><path id="_Trazado_26" data-name="&lt;Trazado&gt;" class="cls-2" d="M186.4,92.5h0Z"/><path id="_Trazado_27" data-name="&lt;Trazado&gt;" class="cls-2" d="M192.5,113.3a.5.5,0,0,1-.6-.6l.3-.9h-1.5l-1.4,4.1,7.6-2.5a.5.5,0,0,1,.6.6l-1.8,5.4.4.4h.9l3-9Z"/><polygon id="_Trazado_28" data-name="&lt;Trazado&gt;" class="cls-2" points="192.5 118.3 188.3 119.7 192.1 119.7 192.5 118.3"/><path id="_Trazado_29" data-name="&lt;Trazado&gt;" class="cls-2" d="M200.7,103l-1.8.6,6.4,6.4.3-1c-.2-.9-.5-1.7-.7-2.5h-.7Z"/><path id="_Trazado_30" data-name="&lt;Trazado&gt;" class="cls-2" d="M186.2,95a.5.5,0,0,1-.3.4l-2.8.9h0l-2.6.9-.6,1.7,7.6-2.5a.5.5,0,0,1,.6.6l-1.9,5.6h0a9.2,9.2,0,0,1,6.6,4.6h0l.5-.2-5.1-5.1a.5.5,0,0,1,.2-.8l10.6-3.6-1.3-1.1-2.4.8h-.5a.5.5,0,0,1-.1-.5l.6-1.7-1.3-.6-1.2,3.6a.5.5,0,0,1-.4.3H192l-5.6-5.6H184l2.1,2.1A.5.5,0,0,1,186.2,95Z"/><path id="_Trazado_31" data-name="&lt;Trazado&gt;" class="cls-2" d="M193.1,102l5.4-1.8.6-1.7-9.6,3.2,5.1,5.1a.5.5,0,0,1-.2.8l-1.1.4a10,10,0,0,1,.5,1.3h0l4.3-1.4-5.1-5.1a.5.5,0,0,1,.2-.8Z"/><path id="_Trazado_32" data-name="&lt;Trazado&gt;" class="cls-2" d="M203.1,132.4H203l-4.8,1.6h0l-2.1.7,2.6,2.6,1.4-1-.5-.5a.5.5,0,0,1,.2-.8l3-1a18,18,0,0,0,1.7-2Z"/><path id="_Trazado_33" data-name="&lt;Trazado&gt;" class="cls-2" d="M194.1,111.8h0Z"/><path id="_Trazado_34" data-name="&lt;Trazado&gt;" class="cls-2" d="M204.4,105.2h0v0Z"/><path id="_Trazado_35" data-name="&lt;Trazado&gt;" class="cls-2" d="M201.3,114.6a.5.5,0,0,1,.3-.4l4.7-1.6c-.1-.6-.1-1.1-.2-1.7h0a.5.5,0,0,1-.4.3h-.5l-7.5-7.6a.5.5,0,0,1,.2-.8l2.8-.9a.5.5,0,0,1,.5.1l3.2,3.2h0a20.7,20.7,0,0,0-4.3-6.7l-.7,2.2-.3.3-4.9,1.6,5.1,5.1a.5.5,0,0,1-.2.8l-5.1,1.7a11.7,11.7,0,0,1,.2,1.4l6.5-2.2a.5.5,0,0,1,.6.6l-3.2,9.6h1.5l.8-2.3a.5.5,0,0,1,.4-.3h.5l2.5,2.5h2.4l-4.7-4.7A.5.5,0,0,1,201.3,114.6Z"/><path id="_Trazado_36" data-name="&lt;Trazado&gt;" class="cls-2" d="M168.3,115.5l.3-.3h.5l1.9,1.9a.5.5,0,0,1,.1.5l-1.6,4.7,4.5-1.5a11.7,11.7,0,0,1-.1-1.2h5.6v-.4h0l.6-1.9-1.9.6h0l-5.6,1.9a.5.5,0,0,1-.6-.6l.9-2.8.3-.3,2.8-.9h0l2.1-.7-2.7-2.7h-1.3a12.4,12.4,0,0,1,.3-1.7v.6l-1.3-1.3a.5.5,0,0,1,.2-.8l1.9-.6a10.1,10.1,0,0,1,1.1-1.9l-4.6,1.5h0l-2.1.7,5.1,5.1a.5.5,0,0,1-.2.8l-2.8.9a.5.5,0,0,1-.5-.1l-3.2-3.2-2.6,7.8a.5.5,0,0,1-.4.3h-.5l-2.8-2.8h0l-.4-.4v.3c0,.7,0,1.5.1,2.2l4.2,4.3Z"/><path id="_Trazado_37" data-name="&lt;Trazado&gt;" class="cls-2" d="M169.1,135.2h0Z"/><path id="_Trazado_38" data-name="&lt;Trazado&gt;" class="cls-2" d="M206.5,116.4l-.4-.4a.5.5,0,0,1,.2-.8h.1c0-.5-.1-1-.1-1.5l-3.7,1.2,3.8,3.8c0-.6,0-1.1,0-1.7S206.5,116.6,206.5,116.4Z"/><polygon id="_Trazado_39" data-name="&lt;Trazado&gt;" class="cls-2" points="172.5 137.6 173.4 138.1 173.7 137.2 172.5 137.6"/><polygon id="_Trazado_40" data-name="&lt;Trazado&gt;" class="cls-2" points="194 139.6 194 139.6 194 139.6 194 139.6"/><path id="_Trazado_41" data-name="&lt;Trazado&gt;" class="cls-2" d="M194,139.6l1.3-.5-.8-.8Z"/><path id="_Trazado_42" data-name="&lt;Trazado&gt;" class="cls-2" d="M192.8,132.5l.6-1.9-1.9.6h0l-5.6,1.9a.5.5,0,0,1-.6-.6l.7-2.2h-2l.2.2a.5.5,0,0,1,.1.5l-1.6,4.7,7.6-2.5a.5.5,0,0,1,.6.6l-1.8,5.4,1.1,1.1,2.6-7.7Z"/><path id="_Trazado_43" data-name="&lt;Trazado&gt;" class="cls-2" d="M201.9,130.3h-.4a.5.5,0,0,1-.2-.6l.5-1.5-1.2-.9-1.2,3.6a.5.5,0,0,1-.4.3h-.5l-3.9-3.9h0a13.6,13.6,0,0,1-7.7,3h0v.4l-.4,1.2,4.7-1.6h0l2.8-.9a.5.5,0,0,1,.6.6l-.9,2.8h0l-2.5,7.5,1.6-.4.9-2.8v-.2l.4-.2h.4l1.7,1.7,1.6-.8-3-3a.5.5,0,0,1,.2-.8l2.8-.9h0l4.9-1.6h.1l2.2-.7-1.4-1Z"/><path id="_Trazado_44" data-name="&lt;Trazado&gt;" class="cls-2" d="M188.1,139.1l1.6-4.7-7.6,2.5h-.5a.5.5,0,0,1-.1-.5l1.8-5.4-1-1h-.1l-2.6,7.7a.5.5,0,0,1-.4.3h-.5l-7.5-7.6a.5.5,0,0,1,.2-.8l2.8-.9a.5.5,0,0,1,.5.1l3.2,3.2,1.1-3.2-1.2-.8h0v.4a.5.5,0,0,1-.4.3h-.5l-1.9-1.9a.5.5,0,0,1-.1-.5l.4-1.2h0a10.6,10.6,0,0,1-1.1-2.8l-5.3,1.8h-.5a.5.5,0,0,1-.2-.5l1.8-5.4-1.1-1.1-2.6,7.8a.5.5,0,0,1-.4.3h-.5l-4-4a25.4,25.4,0,0,0,1.7,6.5l10-3.3a.5.5,0,0,1,.6.6l-.9,2.8-.3.3-4.9,1.6,5.1,5.1a.5.5,0,0,1-.2.8l-2.7.9,1.4,1,2.8-.9a.5.5,0,0,1,.6.6l-.6,1.9a24,24,0,0,0,3.5,1.3l8.8-2.9a.5.5,0,0,1,.6.6l-.9,2.8-.3.3-.8.3h.6l3.6-.2-1.1-1.1A.5.5,0,0,1,188.1,139.1Z"/><polygon id="_Trazado_45" data-name="&lt;Trazado&gt;" class="cls-2" points="201.1 118.4 200.6 119.7 202.3 119.7 201.1 118.4"/><path id="_Trazado_46" data-name="&lt;Trazado&gt;" class="cls-2" d="M202.8,134h0Z"/><polygon id="_Trazado_47" data-name="&lt;Trazado&gt;" class="cls-2" points="173.4 138.1 173.4 138.1 173.4 138.1 173.4 138.1"/><path id="_Trazado_48" data-name="&lt;Trazado&gt;" class="cls-2" d="M166.5,129.2a.5.5,0,0,1,.2-.8l5.4-1.8.6-1.7-9,3,1,1.9,3.4,3.4a.5.5,0,0,1-.2.8l1.2,1.1,2.5-.8Z"/><path id="_Trazado_49" data-name="&lt;Trazado&gt;" class="cls-2" d="M168,134.1h0Z"/><path id="_Trazado_50" data-name="&lt;Trazado&gt;" class="cls-2" d="M164.8,130h-.1Z"/><path id="_Trazado_51" data-name="&lt;Trazado&gt;" class="cls-2" d="M185.9,138.2l-6.4,2.1,3,.5,2.8-1Z"/><polygon id="_Trazado_52" data-name="&lt;Trazado&gt;" class="cls-2" points="163.4 127 163.4 127 163.4 127 163.4 127"/><path id="_Trazado_compuesto_4" data-name="&lt;Trazado compuesto&gt;" class="cls-2" d="M284,129.9l.4-.3h-1.5l-.5,1.1-.8,1.7-1.2-.6.5-1.1.6-1.2c-3.4-.3-5.1-1.9-5.3-7l-1,.3-.4-1.1h0l1.4-.5v-7.6l-1,.3-.4-1.1h0l1.4-.5v-7.6l-1,.3-.4-1.1h0l1.8-.6,1.1-.4.3.8H281l.7-1.4,1.2.6-.4.8h1.9l-.4-.6.7-.5V99.4l-2.7.9-.4-1.3,2.9-1,.2.7V94.7l-.6-.9.4-.3h-1.6l-.5,1.1-.8,1.7-1.2-.6.5-1.1.6-1.2h-5.4v-7l-1,.3-.4-1.1h0l1.4-.5V83.8h-12v4.9h.2l1.7,2.6-1.1.7-.7-1.1v2.7h-5v9.9h2.2l1.3-.4,1.1-.4.3.8h.1v.2h0v2.9l.3-.2,1.7,2.6-1.1.7-.8-1.2v4h0v2.9l.3-.2,1.7,2.6-1.1.7-.8-1.2v4.2h0q0,1.5.1,2.8h.1l1.7,2.6-1.1.7-.4-.6A16.7,16.7,0,0,0,268,136l-.3-.8,2.9-1,.4,1.3-2.7.9a11.6,11.6,0,0,0,2.6,2l.3-.2.4.6a14.6,14.6,0,0,0,3.2,1.1h-.1l1.8-.6,1.1-.4.4,1.1h0l-1,.3,2.9.2h.7l.3-.6.8-1.7,1.2.6-.5,1.1-.3.6,2.7-.3-.2-.3-.6-.9,1.1-.7v-6.6l-.5-.8Zm-23.4-29-1.2-.6,1.3-2.8,1.2.6Zm.5-5-.4-1.1h0l1.8-.6,1.1-.4.4,1.1h0l-1.5.5Zm3.6,5-1.7-2.6,1.1-.7,1.7,2.6Zm15.1-.7-1.1.7-1.7-2.6,1.1-.7ZM276.5,94l1.1-.4.4,1.1h0l-1.5.5-1.4.5-.4-1.1h0Zm-1.8-5.4,1.2.6-1.3,2.8-1.2-.6Zm0,9,1.2.6-1.3,2.8-1.2-.6Zm0,9,1.2.6-1.3,2.8-1.2-.6Zm0,9,1.2.6-1.3,2.8-1.2-.6Zm0,9,1.2.6-1.3,2.8-1.2-.6Zm-7.8-38.9.8-1.7,1.2.6-.5,1.1-.8,1.7-1.2-.6Zm3.7,3.4.4,1.3-2.9,1-.4-1.3Zm-3.7,5.6.8-1.7,1.2.6-.5,1.1-.8,1.7-1.2-.6Zm3.7,3.4.4,1.3-2.9,1-.4-1.3Zm-3.7,5.6.8-1.7,1.2.6-.5,1.1-.8,1.7-1.2-.6Zm3.7,3.4.4,1.3-2.9,1-.4-1.3Zm-3.7,5.6.8-1.7,1.2.6-.5,1.1-.8,1.7-1.2-.6Zm3.7,3.4.4,1.3-2.9,1-.4-1.3Zm-3.7,5.6.8-1.7,1.2.6-.5,1.1-.8,1.7-1.2-.6Zm3.7,3.4.4,1.3-2.9,1-.4-1.3Zm-2.2,5.6-.8,1.7-1.2-.6.5-1.1.8-1.7,1.2.6Zm3.3,1.6-1.1-1.6-.6-.9,1.1-.7,1.1,1.6.6.9Zm0-9-1.1-1.6-.6-.9,1.1-.7,1.1,1.6.6.9Zm0-9-1.1-1.6-.6-.9,1.1-.7,1.1,1.6.6.9Zm0-9-1.1-1.6-.6-.9,1.1-.7,1.1,1.6.6.9Zm0-9-1.1-1.6-.6-.9,1.1-.7,1.1,1.6.6.9Zm0-9-1.1-1.6-.6-.9,1.1-.7,1.1,1.6.6.9Zm2.8,49.6-1.2-.6,1.3-2.8,1.2.6Zm.5-5-.4-1.1h0l1.8-.6,1.1-.4.4,1.1h0l-1.5.5Zm3.6,5-1.7-2.6,1.1-.7,1.7,2.6Zm3.4-.5-.4-1.3,2.9-1,.4,1.3Z"/><path class="cls-2" d="M243.7,93.2l8.1,8.1A13.5,13.5,0,0,0,243.7,93.2Z"/><path class="cls-2" d="M253,105,240.3,92.4l-2.1-.2,15.1,15.1Q253.2,106.1,253,105Z"/><path class="cls-2" d="M235.8,92.3l-1.6.3,19.6,19.6c0-.7,0-1.3-.1-2Z"/><path class="cls-2" d="M230.8,93.8l22.9,22.9v-1.9L232.2,93.2Z"/><path class="cls-2" d="M228.1,95.6l8,8a7.5,7.5,0,0,1,4.9,4.9l12.7,12.7v-1.9L229.2,94.7Z"/><path class="cls-2" d="M241.5,111.6v1.9l12.2,12.2v-1.9l-12.2-12.2Z"/><path class="cls-2" d="M225.9,97.8l5.6,5.6,1.7-.2-6.4-6.4Z"/><polygon class="cls-2" points="225.2 95.3 223.3 93.4 221.4 93.4 225.2 97.2 225.2 95.3"/><path class="cls-2" d="M216.9,93.4,228.5,105l1.1-.8L218.8,93.4Z"/><polygon class="cls-2" points="241.5 117.9 253.7 130.2 253.7 128.3 241.5 116 241.5 117.9"/><polygon class="cls-2" points="241.5 122.4 253.7 134.7 253.7 132.8 241.5 120.5 241.5 122.4"/><path class="cls-2" d="M213.3,93.4v.9l13.3,13.3.7-1.2L214.3,93.4Z"/><path class="cls-2" d="M213.3,98.7,225.5,111a10.2,10.2,0,0,1,.3-1.6L213.3,96.8Z"/><polygon class="cls-2" points="241.5 126.9 253.7 139.2 253.7 137.3 241.5 125 241.5 126.9"/><polygon class="cls-2" points="213.3 103.2 225.5 115.5 225.5 113.6 213.3 101.3 213.3 103.2"/><polygon class="cls-2" points="241.5 131.4 249.8 139.8 251.7 139.8 241.5 129.6 241.5 131.4"/><polygon class="cls-2" points="241.5 136 245.3 139.8 247.2 139.8 241.5 134.1 241.5 136"/><polygon class="cls-2" points="213.3 107.7 225.5 120 225.5 118.1 213.3 105.8 213.3 107.7"/><polygon class="cls-2" points="241.5 139.8 242.9 139.8 241.5 138.4 241.5 139.8"/><polygon class="cls-2" points="213.3 112.2 225.5 124.5 225.5 122.4 213.3 110.1 213.3 112.2"/><polygon class="cls-2" points="213.3 116.7 225.5 129 225.5 127.1 213.3 114.8 213.3 116.7"/><polygon class="cls-2" points="213.3 121.2 225.5 133.5 225.5 131.6 213.3 119.3 213.3 121.2"/><polygon class="cls-2" points="213.3 125.7 225.5 138 225.5 136.1 213.3 123.8 213.3 125.7"/><polygon class="cls-2" points="213.3 130.2 222.8 139.8 224.7 139.8 213.3 128.3 213.3 130.2"/><polygon class="cls-2" points="213.3 134.8 218.3 139.8 220.2 139.8 213.3 132.9 213.3 134.8"/><polygon class="cls-2" points="213.3 139.8 215.7 139.8 213.3 137.4 213.3 139.8"/><path class="cls-2" d="M308.8,140.4A39.9,39.9,0,0,0,300,137,23.9,23.9,0,0,0,308.8,140.4Z"/><path class="cls-2" d="M295.9,133.4l1.8,1.8c5,1.1,9.9,2.3,15.2,5.7h2.3c-6.5-4.6-12.2-5.9-17.8-7.1Z"/><path class="cls-2" d="M293.3,130l1.1,1.7,5.2,1.3c6,1.3,11.8,2.6,18.4,7.7l1.7-.3c-7.3-5.8-13.7-7.3-19.8-8.6C297.7,131.2,295.6,130.7,293.3,130Z"/><path class="cls-2" d="M291.5,126.1l.7,1.7a61.9,61.9,0,0,0,10.1,2.9c6.5,1.4,12.6,2.8,19.9,8.9l1.4-.5c-7.8-6.7-14.6-8.2-21.1-9.7A55.9,55.9,0,0,1,291.5,126.1Z"/><path class="cls-2" d="M290.3,121.8c.1.6.2,1.2.4,1.8,5.1,2.9,9.8,3.9,14.4,4.9,6.7,1.5,13.1,2.9,20.8,9.6l1.2-.7a39.6,39.6,0,0,0-11.3-7.2h-1.4a12.7,12.7,0,0,1-8.5-3h-.6C300.4,126.1,295.5,125,290.3,121.8Z"/><path class="cls-2" d="M289.9,119a39.6,39.6,0,0,0,14.3,6.3,10.4,10.4,0,0,1-.9-1.6,36.8,36.8,0,0,1-13.5-6.4C289.8,117.9,289.9,118.4,289.9,119Z"/><path class="cls-2" d="M330,135.2a40.9,40.9,0,0,0-9.3-6.4l-1.6.7a38.5,38.5,0,0,1,9.9,6.6Z"/><path class="cls-2" d="M332.4,132.7a41,41,0,0,0-8.6-6l-1.1.9a38.9,38.9,0,0,1,8.9,6.1Z"/><path class="cls-2" d="M289.9,114.6a38.2,38.2,0,0,0,12.7,7.2,11.4,11.4,0,0,1-.2-1.5,37,37,0,0,1-12.3-7.4C290,113.5,289.9,114,289.9,114.6Z"/><path class="cls-2" d="M290.4,110.9a39.4,39.4,0,0,0,14.2,8.8h4.7a38.1,38.1,0,0,1-18.5-10.3Z"/><path class="cls-2" d="M333.8,130.7l-8.1-6.1-.7,1a38.2,38.2,0,0,1,8.5,5.6Z"/><path class="cls-2" d="M292.8,105.8l-.6-.6-.6,1.3.2.2c9.2,9.2,16.8,10.9,24.1,12.5l1.8.4h5.3c-2.3-.7-4.5-1.2-6.7-1.7C308.8,116.3,301.7,114.7,292.8,105.8Z"/><path class="cls-2" d="M306.5,111.6h-2.7c5.3,3.1,10.2,4.2,15,5.3a62.9,62.9,0,0,1,9.7,2.7h3.2a53,53,0,0,0-12.6-4A51.3,51.3,0,0,1,306.5,111.6Z"/><path class="cls-2" d="M302.8,111a12.2,12.2,0,0,1,.3-1.4,46,46,0,0,1-7.5-6.2l-1.5-1.6-.7,1.2,1.3,1.3A46.6,46.6,0,0,0,302.8,111Z"/><path class="cls-2" d="M315.1,111.6h-3.9a61,61,0,0,0,10.3,3c4.5,1,8.8,2,13.5,4.5q0-.7.1-1.5a51.3,51.3,0,0,0-13.3-4.3C319.6,112.8,317.3,112.3,315.1,111.6Z"/><path class="cls-2" d="M303.8,107.6l.7-1.1a48.1,48.1,0,0,1-6.2-5.3l-2-2.1-.9,1,1.9,2A48.8,48.8,0,0,0,303.8,107.6Z"/><path class="cls-2" d="M305.9,104.8l1.1-.9a48.5,48.5,0,0,1-5.9-5.1L299,96.7l-1,.8,2.2,2.3A49.6,49.6,0,0,0,305.9,104.8Z"/><path class="cls-2" d="M324.5,111l-2-.4c0,.4.1.7.1,1.1h-1.3l2.9.7a57.4,57.4,0,0,1,10.8,3.2c0-.5,0-1-.1-1.5A60.6,60.6,0,0,0,324.5,111Z"/><path class="cls-2" d="M309.1,102.8l1.7-.4a46.7,46.7,0,0,1-7-5.8L302,94.7l-1.2.7,2,2.1A48.9,48.9,0,0,0,309.1,102.8Z"/><path class="cls-2" d="M321.5,107.3a9.7,9.7,0,0,1,.6,1.5L327,110a76.3,76.3,0,0,1,7.8,2l-.2-1.5c-2.5-.8-4.9-1.3-7.3-1.9Z"/><path class="cls-2" d="M314.8,102.4a9.5,9.5,0,0,1,5,2.4,62.5,62.5,0,0,0,10,2.8l4.4,1-.4-1.5-3.7-.9c-7.5-1.7-14.6-3.2-23.5-12.1l-1-1-1.4.5,1.4,1.5A45.3,45.3,0,0,0,314.8,102.4Z"/><path class="cls-2" d="M332.5,105.4l.7.2-.6-1.5c-7.3-1.6-14.2-3.2-22.8-11.7l-1.6.3.3.3C317.5,102.1,325.1,103.7,332.5,105.4Z"/><path class="cls-2" d="M330.6,100.6a37.1,37.1,0,0,1-15.7-8.3h-2.1a39.7,39.7,0,0,0,18.8,10Z"/><path class="cls-2" d="M319.3,93a37.6,37.6,0,0,0,9.2,5.1A19.7,19.7,0,0,0,319.3,93Z"/></svg>